# xmcd
#
# Track frame offsets:
#	150
#	21295
#	38539
#	57144
#	80584
#	102625
#	122795
#	141888
#	161514
#	177888
#	198219
#
# Disc length: 3096 seconds
#
# Revision: 16
# Processed by: cddbd v1.5.2PL0 Copyright (c) Steve Scherf et al.
# Submitted via: Jack! The Knife 20 Magnifico
#
DISCID=8e0c160b
DTITLE=Loudness - On The Prowl
DYEAR=1991
DGENRE=Heavy Metal
TTITLE0=Down 'N' Dirty
TTITLE1=Playin' Games
TTITLE2=Love Toys
TTITLE3=Never Again
TTITLE4=Deadly Player
TTITLE5=Take It Or Leave It
TTITLE6=Girl
TTITLE7=Long Distance
TTITLE8=In The Mirror
TTITLE9=Sleepless Night
TTITLE10=Find A Way
EXTD=Loudness and Mark Dearnley
EXTT0=Akira Takasaki
EXTT1=Akira Takasaki
EXTT2=Akira Takasaki
EXTT3=Akira Takasaki
EXTT4=Akira Takasaki
EXTT5=Akira Takasaki
EXTT6=Akira Takasaki
EXTT7=Akira Takasaki
EXTT8=Akira Takasaki
EXTT9=Akira Takasaki
EXTT10=Akira Takasaki
PLAYORDER=
